<mxfile host="app.diagrams.net" modified="2023-04-14T07:01:48.220Z" agent="5.0 (Windows NT 10.0; Win64; x64) AppleWebKit/537.36 (KHTML, like Gecko) Chrome/112.0.0.0 Safari/537.36" etag="ln_maR9nBBwosxUodU2i" version="21.0.6" type="github">
  <diagram name="페이지-1" id="GiUEUiroqYLzp_R0Pv3L">
    <mxGraphModel dx="936" dy="502" grid="1" gridSize="10" guides="1" tooltips="1" connect="1" arrows="1" fold="1" page="1" pageScale="1" pageWidth="827" pageHeight="1169" math="0" shadow="0">
      <root>
        <mxCell id="0" />
        <mxCell id="1" parent="0" />
        <mxCell id="7sVlIy3yxmDWNHLQQkl0-18" style="edgeStyle=orthogonalEdgeStyle;rounded=0;orthogonalLoop=1;jettySize=auto;html=1;exitX=1;exitY=0.5;exitDx=0;exitDy=0;" edge="1" parent="1" source="7sVlIy3yxmDWNHLQQkl0-3" target="7sVlIy3yxmDWNHLQQkl0-6">
          <mxGeometry relative="1" as="geometry" />
        </mxCell>
        <mxCell id="7sVlIy3yxmDWNHLQQkl0-3" value="repository" style="rounded=0;whiteSpace=wrap;html=1;fontFamily=Dongle;fontSource=https%3A%2F%2Ffonts.googleapis.com%2Fcss%3Ffamily%3DDongle;fontSize=25;" vertex="1" parent="1">
          <mxGeometry x="294" y="330" width="120" height="60" as="geometry" />
        </mxCell>
        <mxCell id="7sVlIy3yxmDWNHLQQkl0-19" style="edgeStyle=orthogonalEdgeStyle;rounded=0;orthogonalLoop=1;jettySize=auto;html=1;entryX=1;entryY=0.5;entryDx=0;entryDy=0;" edge="1" parent="1" source="7sVlIy3yxmDWNHLQQkl0-6" target="7sVlIy3yxmDWNHLQQkl0-3">
          <mxGeometry relative="1" as="geometry" />
        </mxCell>
        <mxCell id="7sVlIy3yxmDWNHLQQkl0-6" value="DB" style="ellipse;shape=cloud;whiteSpace=wrap;html=1;fontSize=25;fontFamily=Dongle;fontSource=https%3A%2F%2Ffonts.googleapis.com%2Fcss%3Ffamily%3DDongle;" vertex="1" parent="1">
          <mxGeometry x="520" y="320" width="120" height="80" as="geometry" />
        </mxCell>
        <mxCell id="7sVlIy3yxmDWNHLQQkl0-16" style="edgeStyle=orthogonalEdgeStyle;rounded=0;orthogonalLoop=1;jettySize=auto;html=1;exitX=0.5;exitY=1;exitDx=0;exitDy=0;entryX=0.5;entryY=0;entryDx=0;entryDy=0;" edge="1" parent="1" source="7sVlIy3yxmDWNHLQQkl0-7" target="7sVlIy3yxmDWNHLQQkl0-3">
          <mxGeometry relative="1" as="geometry" />
        </mxCell>
        <mxCell id="7sVlIy3yxmDWNHLQQkl0-7" value="service" style="rounded=0;whiteSpace=wrap;html=1;fontSize=25;fontFamily=Dongle;fontSource=https%3A%2F%2Ffonts.googleapis.com%2Fcss%3Ffamily%3DDongle;" vertex="1" parent="1">
          <mxGeometry x="294" y="220" width="120" height="60" as="geometry" />
        </mxCell>
        <mxCell id="7sVlIy3yxmDWNHLQQkl0-14" style="edgeStyle=orthogonalEdgeStyle;rounded=0;orthogonalLoop=1;jettySize=auto;html=1;exitX=1;exitY=0.5;exitDx=0;exitDy=0;" edge="1" parent="1" source="7sVlIy3yxmDWNHLQQkl0-8" target="7sVlIy3yxmDWNHLQQkl0-7">
          <mxGeometry relative="1" as="geometry" />
        </mxCell>
        <mxCell id="7sVlIy3yxmDWNHLQQkl0-8" value="controller" style="rounded=0;whiteSpace=wrap;html=1;fontSize=25;fontFamily=Dongle;fontSource=https%3A%2F%2Ffonts.googleapis.com%2Fcss%3Ffamily%3DDongle;" vertex="1" parent="1">
          <mxGeometry x="90" y="220" width="120" height="60" as="geometry" />
        </mxCell>
        <mxCell id="7sVlIy3yxmDWNHLQQkl0-11" style="edgeStyle=orthogonalEdgeStyle;rounded=0;orthogonalLoop=1;jettySize=auto;html=1;exitX=0.5;exitY=1;exitDx=0;exitDy=0;" edge="1" parent="1" source="7sVlIy3yxmDWNHLQQkl0-9" target="7sVlIy3yxmDWNHLQQkl0-8">
          <mxGeometry relative="1" as="geometry" />
        </mxCell>
        <mxCell id="7sVlIy3yxmDWNHLQQkl0-9" value="client" style="rhombus;whiteSpace=wrap;html=1;fontFamily=Dongle;fontSource=https%3A%2F%2Ffonts.googleapis.com%2Fcss%3Ffamily%3DDongle;fontSize=25;" vertex="1" parent="1">
          <mxGeometry x="110" y="60" width="80" height="80" as="geometry" />
        </mxCell>
        <mxCell id="7sVlIy3yxmDWNHLQQkl0-13" value="req" style="text;html=1;strokeColor=none;fillColor=none;align=center;verticalAlign=middle;whiteSpace=wrap;rounded=0;" vertex="1" parent="1">
          <mxGeometry x="140" y="160" width="60" height="30" as="geometry" />
        </mxCell>
        <mxCell id="7sVlIy3yxmDWNHLQQkl0-15" value="Treat" style="text;html=1;strokeColor=none;fillColor=none;align=center;verticalAlign=middle;whiteSpace=wrap;rounded=0;" vertex="1" parent="1">
          <mxGeometry x="220" y="220" width="60" height="30" as="geometry" />
        </mxCell>
        <mxCell id="7sVlIy3yxmDWNHLQQkl0-17" value="DB" style="text;html=1;strokeColor=none;fillColor=none;align=center;verticalAlign=middle;whiteSpace=wrap;rounded=0;" vertex="1" parent="1">
          <mxGeometry x="340" y="290" width="60" height="30" as="geometry" />
        </mxCell>
      </root>
    </mxGraphModel>
  </diagram>
</mxfile>
